<svg xmlns="http://www.w3.org/2000/svg" width="600" height="900" viewBox="0 0 600 900" fill="none">
  <defs>
    <linearGradient id="bg1" x1="0" y1="0" x2="600" y2="900" gradientUnits="userSpaceOnUse">
      <stop stop-color="#F6F1E8"/>
      <stop offset="1" stop-color="#E9E2D4"/>
    </linearGradient>
  </defs>
  <rect width="600" height="900" fill="url(#bg1)"/>
  <circle cx="300" cy="260" r="110" fill="#F6D2B8"/>
  <path d="M248 250c8-24 22-36 52-36s44 12 52 36" stroke="#5E5148" stroke-width="12" stroke-linecap="round"/>
  <circle cx="262" cy="260" r="8" fill="#4F4138"/>
  <circle cx="338" cy="260" r="8" fill="#4F4138"/>
  <path d="M262 308c18 22 58 22 76 0" stroke="#B46A6A" stroke-width="10" stroke-linecap="round"/>
  <rect x="205" y="360" width="190" height="190" rx="80" fill="#BFA68A"/>
  <rect x="220" y="540" width="70" height="230" rx="35" fill="#6E7266"/>
  <rect x="310" y="540" width="70" height="230" rx="35" fill="#6E7266"/>
  <rect x="145" y="400" width="65" height="180" rx="32" fill="#F6D2B8"/>
  <rect x="390" y="400" width="65" height="180" rx="32" fill="#F6D2B8"/>
</svg>