<svg xmlns="http://www.w3.org/2000/svg" width="600" height="900" viewBox="0 0 600 900" fill="none">
  <defs>
    <linearGradient id="bg9" x1="0" y1="0" x2="600" y2="900" gradientUnits="userSpaceOnUse">
      <stop stop-color="#F6F2EA"/>
      <stop offset="1" stop-color="#E0D7CB"/>
    </linearGradient>
  </defs>
  <rect width="600" height="900" fill="url(#bg9)"/>
  <circle cx="300" cy="260" r="108" fill="#EEC6A5"/>
  <path d="M246 248c8-22 24-36 54-36s46 14 54 36" stroke="#4F443B" stroke-width="12" stroke-linecap="round"/>
  <circle cx="266" cy="262" r="8" fill="#4F443B"/>
  <circle cx="334" cy="262" r="8" fill="#4F443B"/>
  <path d="M262 308c18 20 58 20 76 0" stroke="#AD6363" stroke-width="10" stroke-linecap="round"/>
  <rect x="205" y="365" width="190" height="190" rx="80" fill="#90A0C8"/>
  <rect x="218" y="545" width="70" height="225" rx="35" fill="#59627A"/>
  <rect x="312" y="545" width="70" height="225" rx="35" fill="#59627A"/>
  <rect x="150" y="400" width="58" height="180" rx="29" fill="#EEC6A5"/>
  <rect x="392" y="400" width="58" height="180" rx="29" fill="#EEC6A5"/>
</svg>