<svg xmlns="http://www.w3.org/2000/svg" width="600" height="900" viewBox="0 0 600 900" fill="none">
  <defs>
    <linearGradient id="bg5" x1="0" y1="0" x2="600" y2="900" gradientUnits="userSpaceOnUse">
      <stop stop-color="#F8F3EB"/>
      <stop offset="1" stop-color="#E2DACD"/>
    </linearGradient>
  </defs>
  <rect width="600" height="900" fill="url(#bg5)"/>
  <circle cx="300" cy="260" r="108" fill="#EEC4A2"/>
  <path d="M246 248c10-25 24-38 54-38s44 13 54 38" stroke="#4F433A" stroke-width="12" stroke-linecap="round"/>
  <circle cx="266" cy="262" r="8" fill="#4F433A"/>
  <circle cx="334" cy="262" r="8" fill="#4F433A"/>
  <path d="M262 308c18 21 58 21 76 0" stroke="#B26666" stroke-width="10" stroke-linecap="round"/>
  <rect x="205" y="365" width="190" height="190" rx="80" fill="#C7B088"/>
  <rect x="218" y="545" width="70" height="225" rx="35" fill="#60736D"/>
  <rect x="312" y="545" width="70" height="225" rx="35" fill="#60736D"/>
  <rect x="148" y="402" width="60" height="178" rx="30" fill="#EEC4A2"/>
  <rect x="392" y="402" width="60" height="178" rx="30" fill="#EEC4A2"/>
</svg>