<svg xmlns="http://www.w3.org/2000/svg" width="600" height="900" viewBox="0 0 600 900" fill="none">
  <defs>
    <linearGradient id="bg3" x1="0" y1="0" x2="600" y2="900" gradientUnits="userSpaceOnUse">
      <stop stop-color="#F5EFE2"/>
      <stop offset="1" stop-color="#E1D9CA"/>
    </linearGradient>
  </defs>
  <rect width="600" height="900" fill="url(#bg3)"/>
  <circle cx="300" cy="260" r="108" fill="#EFC8A8"/>
  <path d="M246 248c12-22 26-34 54-34s42 12 54 34" stroke="#54473D" stroke-width="12" stroke-linecap="round"/>
  <circle cx="265" cy="262" r="8" fill="#54473D"/>
  <circle cx="335" cy="262" r="8" fill="#54473D"/>
  <path d="M262 310c16 20 60 20 76 0" stroke="#B56B6B" stroke-width="10" stroke-linecap="round"/>
  <rect x="205" y="365" width="190" height="190" rx="80" fill="#C88A8D"/>
  <rect x="218" y="545" width="70" height="225" rx="35" fill="#6B707A"/>
  <rect x="312" y="545" width="70" height="225" rx="35" fill="#6B707A"/>
  <rect x="150" y="395" width="58" height="185" rx="29" fill="#EFC8A8"/>
  <rect x="392" y="395" width="58" height="185" rx="29" fill="#EFC8A8"/>
</svg>