<svg xmlns="http://www.w3.org/2000/svg" width="600" height="900" viewBox="0 0 600 900" fill="none">
  <defs>
    <linearGradient id="bg7" x1="0" y1="0" x2="600" y2="900" gradientUnits="userSpaceOnUse">
      <stop stop-color="#F6F0E5"/>
      <stop offset="1" stop-color="#E1D8CA"/>
    </linearGradient>
  </defs>
  <rect width="600" height="900" fill="url(#bg7)"/>
  <circle cx="300" cy="260" r="108" fill="#F2CCAF"/>
  <path d="M244 248c10-24 24-36 56-36s46 12 56 36" stroke="#4A3F36" stroke-width="12" stroke-linecap="round"/>
  <circle cx="266" cy="262" r="8" fill="#4A3F36"/>
  <circle cx="334" cy="262" r="8" fill="#4A3F36"/>
  <path d="M262 310c18 20 58 20 76 0" stroke="#AE6363" stroke-width="10" stroke-linecap="round"/>
  <rect x="205" y="365" width="190" height="190" rx="80" fill="#D89B94"/>
  <rect x="218" y="545" width="70" height="225" rx="35" fill="#6A6A77"/>
  <rect x="312" y="545" width="70" height="225" rx="35" fill="#6A6A77"/>
  <rect x="150" y="400" width="58" height="180" rx="29" fill="#F2CCAF"/>
  <rect x="392" y="400" width="58" height="180" rx="29" fill="#F2CCAF"/>
</svg>